<?xml version="1.0" standalone="no"?>
<!DOCTYPE svg PUBLIC "-//W3C//DTD SVG 20010904//EN"
 "http://www.w3.org/TR/2001/REC-SVG-20010904/DTD/svg10.dtd">
<svg version="1.0" xmlns="http://www.w3.org/2000/svg"
 width="500.000000pt" height="500.000000pt" viewBox="0 0 500.000000 500.000000"
 preserveAspectRatio="xMidYMid meet">
<metadata>
Created by potrace 1.14, written by Peter Selinger 2001-2017
</metadata>
<g transform="translate(0.000000,500.000000) scale(0.100000,-0.100000)"
fill="#000000" stroke="none">
<path d="M2524 4736 c-10 -19 -90 -151 -176 -293 -255 -420 -307 -507 -305
-509 1 -1 38 6 82 17 44 11 140 26 213 33 73 8 134 15 136 17 1 2 17 26 35 52
39 57 28 65 116 -93 32 -58 62 -106 67 -108 4 -2 8 -8 8 -14 0 -7 792 -1403
1020 -1798 5 -8 30 -53 57 -100 26 -47 50 -87 53 -90 4 -3 9 -12 12 -20 9 -23
25 26 44 132 11 62 17 153 18 273 1 164 -1 184 -18 210 -11 17 -33 55 -49 85
-16 30 -36 62 -43 71 -8 8 -14 19 -14 22 0 5 -179 321 -230 407 -8 13 -211
369 -262 460 -262 463 -732 1280 -738 1280 -3 0 -15 -16 -26 -34z"/>
<path d="M2410 3963 c-166 -13 -384 -59 -527 -112 -112 -41 -223 -92 -223
-102 0 -5 -3 -8 -7 -7 -13 3 -72 -31 -167 -96 -99 -67 -281 -236 -355 -330
-260 -328 -406 -751 -400 -1162 1 -120 18 -294 28 -294 6 1 95 150 116 194 5
12 12 23 15 26 12 10 190 317 190 327 0 6 5 13 10 15 6 2 19 39 30 83 17 74
38 137 72 225 7 19 35 75 61 125 191 356 507 608 884 705 156 41 270 52 466
48 92 -1 167 -1 167 1 0 10 -74 136 -82 139 -4 2 -8 9 -8 14 0 6 -26 55 -57
110 l-57 98 -55 -2 c-31 -1 -76 -3 -101 -5z"/>
<path d="M3120 3841 c0 -5 57 -110 126 -233 70 -123 141 -248 157 -278 17 -30
74 -100 126 -156 216 -226 342 -482 397 -804 12 -72 11 -273 -2 -352 -7 -46
-16 -99 -19 -118 -11 -67 -86 -273 -135 -371 -27 -55 -77 -142 -110 -193 -33
-51 -60 -96 -60 -99 0 -4 99 -7 219 -7 l220 0 29 53 c79 139 166 380 204 567
20 99 23 145 23 330 0 229 -9 301 -61 483 -73 258 -231 528 -429 735 -85 88
-254 232 -273 232 -7 0 -12 4 -12 8 0 10 -164 109 -241 145 -91 43 -159 67
-159 58z"/>
<path d="M2100 3516 c-96 -29 -233 -85 -241 -98 -3 -5 -8 -8 -10 -6 -3 1 -37
-12 -76 -30 l-72 -33 -227 -377 c-125 -207 -234 -389 -243 -404 -9 -15 -127
-212 -263 -437 -137 -225 -248 -413 -248 -419 0 -6 -4 -12 -8 -14 -7 -2 -198
-313 -239 -388 -8 -14 -70 -117 -138 -230 l-125 -205 507 -3 c278 -1 509 0
511 3 3 3 -22 33 -56 68 -67 69 -76 78 -163 190 -45 59 -66 78 -82 77 -12 -1
-44 -2 -71 -1 -48 1 -48 1 -33 23 19 27 95 151 115 188 7 14 21 37 30 52 34
54 196 324 210 348 7 14 21 37 30 51 16 25 73 120 97 161 6 10 210 349 454
755 244 406 446 741 448 746 7 12 -29 7 -107 -17z"/>
<path d="M1970 2175 l0 -205 35 0 c34 0 35 1 35 40 l0 40 440 0 440 0 0 -40 0
-40 40 0 40 0 0 205 0 205 -40 0 -40 0 0 -40 0 -40 -440 0 -440 0 0 40 c0 39
-1 40 -35 40 l-35 0 0 -205z"/>
<path d="M4262 1753 c1 -30 -50 -189 -94 -296 l-42 -100 41 -79 40 -78 -1331
-1 c-732 -1 -1339 -1 -1349 0 -31 4 -18 -15 51 -76 96 -84 185 -150 276 -205
l79 -48 1429 0 c785 0 1428 2 1428 4 0 12 -509 891 -518 894 -6 2 -11 -5 -10
-15z"/>
<path d="M1123 1635 c-13 -19 -23 -39 -23 -44 0 -5 -4 -11 -8 -13 -11 -4 -92
-124 -92 -137 0 -5 -3 -11 -7 -13 -12 -5 -63 -86 -63 -99 0 -10 78 -136 101
-162 5 -7 28 -37 50 -67 266 -362 688 -617 1134 -685 102 -16 338 -21 455 -10
109 11 301 52 411 90 188 65 426 195 539 293 l35 31 -75 1 c-41 0 -192 3 -335
6 l-260 6 -100 -30 c-390 -115 -835 -51 -1159 167 -209 141 -372 330 -512 596
-31 58 -59 105 -62 105 -4 0 -17 -16 -29 -35z"/>
</g>
</svg>
